<svg version="1.2" xmlns="http://www.w3.org/2000/svg" viewBox="0 0 4000 4000" width="1000" height="1000">
	<title>33899280_6700_10_02-svg</title>
	<style>
		.s0 { fill: #ffffff } 
		.s1 { fill: #371b45 } 
		.s2 { fill: #fb132b } 
		.s3 { fill: #d35558 } 
		.s4 { fill: #ff364a } 
		.s5 { fill: #ff8a0b } 
		.s6 { fill: #ffe600 } 
		.s7 { fill: #12c7ff } 
		.s8 { fill: #121a27 } 
	</style>
	<g id="Layer">
		<g id="Layer">
		</g>
		<g id="Layer">
			<g id="Layer">
				<g id="Layer">
					<g id="Layer">
						<g id="Layer">
							<path id="Layer" class="s0" d="m1832.2 2129.3c2.7 15.6 4.5 24.4 4.5 24.4h-171.2c-69.7 0-129.6-49.3-142.7-117.7-9.5-49.4-17.1-114.9-17.1-197.6-0.1-122.7 10.8-217.9 22.7-285.4 11.3-64.5 63.8-112.8 127.7-119.6q8.1-0.9 16.4-0.9l142.7 1.1 21.8 0.2c0 0-8 43.5-16.1 113.6-7.8 67-15.9 158.4-17.2 259.4-1.9 134.2 19 268.8 28.5 322.5z"/>
						</g>
						<g id="Layer" style="opacity: .3">
							<g id="Layer">
								<g id="Layer">
									<path id="Layer" class="s1" d="m1832.2 2129.3c2.7 15.6 4.5 24.4 4.5 24.4h-171.2c-69.7 0-129.6-49.3-142.7-117.7-7.1-36.7-13.1-82.3-15.7-137.2 6.9 33.4 24.9 62.1 49.7 82.6 25.4 20.9 57.8 33.2 92.6 33.2 89.2 0 158.6-77.3 149.1-165.9-6.5-60.5-11.6-127.1-10.9-181 1.2-88.8 7.6-170.2 14.4-234.1h13.2l21.8 0.2c0 0-7.9 43.5-16.1 113.6-7.8 67-15.9 158.4-17.2 259.4-1.9 134.3 18.9 268.8 28.5 322.5z"/>
								</g>
							</g>
						</g>
						<g id="Layer">
							<path id="Layer" fill-rule="evenodd" class="s1" d="m1836.7 2173.9h-171.2c-79.3 0-147.7-56.4-162.6-134.1-11.6-60.6-17.5-128.3-17.5-201.4 0-104.7 7.8-201.9 23-288.9 14-79.7 82.5-137.2 163.1-137.2q0.6 0 1.2 0l164.5 1.3c6 0 11.6 2.7 15.4 7.3 3.8 4.6 5.4 10.7 4.3 16.6-0.3 1.6-30.2 167.3-33 369.6-2.3 168.9 32.3 340.8 32.6 342.5 1.2 6-0.3 12.2-4.1 16.9-3.9 4.7-9.6 7.4-15.7 7.4zm-165.2-721.1c-60.9 0-112.6 43.5-123.2 103.8-14.8 84.6-22.4 179.4-22.4 281.8 0 70.5 5.7 135.7 16.8 193.8 11.2 58.6 62.9 101.2 122.8 101.2h146.8c-9.6-54-30.7-189.6-28.9-326.9 2.2-160.8 21.4-299 29.8-352.6l-140.8-1.1q-0.5 0-0.9 0z"/>
						</g>
						<g id="Layer">
							<path id="Layer" class="s0" d="m1596.2 1793.3h118.2c20.4 0 36.9 16.5 36.9 36.9v97.7c0 53.1-43 96-96 96-53 0-96-42.9-96-96v-97.7c0-20.4 16.5-36.9 36.9-36.9z"/>
						</g>
						<g id="Layer" style="opacity: .3">
							<g id="Layer">
								<g id="Layer">
									<path id="Layer" class="s1" d="m1751.3 1830.2v97.7c0 53.1-43 96-96 96-26.5 0-50.5-10.7-67.9-28.1-17.3-17.3-28.1-41.4-28.1-67.9v-1.9c4.2 7.1 9.2 13.7 15 19.5 17.4 17.3 41.4 28.1 67.9 28.1 52.9 0 95.9-43 95.9-96v-75.6c8.1 6.8 13.2 16.9 13.2 28.2z"/>
								</g>
							</g>
						</g>
						<g id="Layer">
							<path id="Layer" fill-rule="evenodd" class="s1" d="m1655.3 2039.1c-61.3 0-111.2-49.9-111.2-111.2v-97.7c0-28.7 23.4-52.1 52.1-52.1h118.2c28.7 0 52.1 23.4 52.1 52.1v97.7c0 61.3-49.9 111.2-111.2 111.2zm-59.1-230.6c-12 0-21.7 9.7-21.7 21.7v97.7c0 44.6 36.2 80.8 80.8 80.8 44.5 0 80.8-36.2 80.8-80.8v-97.7c0-12-9.8-21.7-21.7-21.7z"/>
						</g>
						<g id="Layer">
							<path id="Layer" class="s0" d="m2764.4 1893.4c-40.9 27.2-88.6-3.3-88.6-3.3 0 0-91.6 58.9-171.2 59.9q-7 0.1-13.9-0.4c-6.2-0.5-18.4-5.9-34.5-14.7-35.1-19-88.8-53.9-139.8-88.5h-0.1c-72.5-49-139.6-97.1-139.6-97.1l3.8-180.1 0.2-12.4 3.1-152.5 1.6-76.1 34 36.7 104.3 112.7 190.3 205.7 35.3 38.1c0 0 57.2-41.3 111.6-44.7 6.5-0.5 12.9-0.3 19.3 0.5 53.9 6.8 80.1 19.2 99.2 44.2 19.8 25.8 31.7 141-15 172z"/>
						</g>
						<g id="Layer">
							<path id="Layer" class="s1" d="m2502.5 1965.2q-6.6 0-13-0.5c-40.3-3.2-256.4-156.2-321.6-203-6.8-4.9-8.4-14.4-3.5-21.2 4.9-6.9 14.4-8.4 21.2-3.5 132.5 95.1 283.4 195 306.3 197.4 76.2 6.1 174.7-56.4 175.6-57.1 5-3.2 11.4-3.2 16.4 0 0.4 0.2 40.1 24.7 72.1 3.5 14.3-9.5 20.6-30.7 23.3-46.8 7-41.8-2.3-90.8-12-103.4-14.4-19-33.7-31.3-89.1-38.4-52.4-6.7-119.3 41.1-120 41.6-6.2 4.5-14.8 3.6-20-2l-363.9-393.3c-5.7-6.2-5.3-15.8 0.8-21.5 6.2-5.7 15.8-5.3 21.5 0.9l355.1 383.7c23.6-14.8 80-46 130.4-39.5 57.4 7.3 87.1 20.9 109.4 50 17 22.3 25.3 81.6 17.7 126.9-5.3 31.6-17.9 54.8-36.4 67.1-37.8 25.1-79 10.1-96.6 1.5-24.6 14.7-102.9 57.6-173.7 57.6z"/>
						</g>
						<g id="Layer">
							<path id="Layer" class="s0" d="m2417.3 1578.8c0 0-35.2 129.1-153.8 231.5"/>
						</g>
						<g id="Layer">
							<path id="Layer" class="s1" d="m2263.5 1823c-3.5 0-7.1-1.5-9.6-4.4-4.5-5.3-3.9-13.3 1.3-17.8 114-98.5 149.6-224.1 149.9-225.3 1.9-6.8 8.9-10.7 15.6-8.9 6.7 1.9 10.7 8.8 8.9 15.6-1.5 5.4-37.7 134-157.8 237.7-2.4 2.1-5.3 3.1-8.3 3.1z"/>
						</g>
						<g id="Layer">
							<path id="Layer" class="s2" d="m1843 3046.5l-93.3 25.2c-42.2 11.4-87.2-1.3-117.3-33-89.4-94.6-151.3-211.8-179-338.9-9.2-42.8 5.7-87.1 38.9-115.5l73.4-62.9z"/>
						</g>
						<g id="Layer" style="opacity: .3">
							<path id="Layer" class="s1" d="m1565.7 2531.4l-5 4.3 222.3 420.8-93.3 25.2c-42.2 11.4-87.2-1.3-117.3-33-22.1-23.5-42.6-48.3-61.3-74.4 31.4 63.6 72.2 122.4 121.3 174.4 30.1 31.7 75.1 44.4 117.3 33l93.3-25.2z"/>
						</g>
						<g id="Layer" style="opacity: .3">
							<path id="Layer" class="s0" d="m1478.4 2739.7c-9.2-42.7 5.7-87 38.9-115.4l70.7-60.6-22.3-42.3-73.4 62.9c-33.2 28.4-48.1 72.7-38.9 115.4 19.2 88.5 55.1 172.1 105.2 246.6-37.1-64-64.3-133.6-80.2-206.6z"/>
						</g>
						<g id="Layer">
							<path id="Layer" class="s2" d="m1249.3 2426.2c55.3 3.7 314.9 19 376.1 146.4l161.6-202.5c-3.9-5.8-8.2-11.7-13-17.5-69.1-83.6-242.1-161.8-521.5 58.7q-3.1 2.4-6.3 4.9c-4 3.2-1.9 9.6 3.1 10z"/>
						</g>
						<g id="Layer" style="opacity: .3">
							<g id="Layer">
								<g id="Layer">
									<path id="Layer" class="s1" d="m1249.3 2426.2c55.3 3.7 314.9 19 376.1 146.4l161.6-202.5c-3.9-5.8-8.2-11.7-13-17.5l7.2 7.5c-18.9 0.8-47.4 5.8-69.7 20.4-81.7 53.4-127.9 75.1-193 52.1-81.6-28.8-211.3-37-266-21.3q-3.1 2.4-6.3 4.9c-4 3.2-1.9 9.6 3.1 10z"/>
								</g>
							</g>
						</g>
						<g id="Layer" style="opacity: .3">
							<g id="Layer">
								<g id="Layer">
									<path id="Layer" class="s0" d="m1268.2 2427.5c-13.9-1.3-7.9-0.6-18.9-1.3-5.1-0.4-7.1-6.8-3.1-10 302.8-242.4 482-135.4 540.8-46.1l-17.5 21.9c-71.4-73.7-261.3-134.1-501.3 35.5z"/>
								</g>
							</g>
						</g>
						<g id="Layer">
							<path id="Layer" class="s1" d="m1625.4 2592.9c-7.5 0-14.8-4.3-18.3-11.5-20.6-42.9-94.3-117.5-356.5-134.8l-2.6-0.2c-10.8-0.7-19.7-7.8-23-18.1-3.2-10.2 0.2-21.2 8.5-27.9 146.9-117.5 280.5-167.8 397.4-149.3 102.8 16.3 155.2 80.9 173 107.9 6.1 9.3 3.5 21.9-5.8 28-9.4 6.2-21.9 3.6-28.1-5.8-14.8-22.5-58.6-76.3-145.5-90.1-95.9-15.1-211.5 25.5-335.7 117.8 241.2 22.1 326.3 95.6 354.8 154.9 4.9 10.1 0.7 22.2-9.4 27.1-2.9 1.3-5.8 2-8.8 2z"/>
						</g>
						<g id="Layer">
							<path id="Layer" class="s3" d="m2099 2960.9c40.6 98.8 30.7 312.4-340.2 425.8-4.9 1.5-9-3.8-6.5-8.1 28.1-47.7 158.8-276.4 88.2-398.8z"/>
						</g>
						<g id="Layer">
							<path id="Layer" class="s2" d="m1758.8 3386.8c-4.9 1.4-9-3.9-6.4-8.3 14.3-24.4 55.6-96.3 83-177.1 25.9-76.3 39.3-160.6 5.8-220.3-0.2-0.4-0.5-0.9-0.8-1.3l1.6-0.1 257-18.8c11.4 27.7 18.8 64.5 15.3 105.6-8.7 105.2-88.7 238.7-355.5 320.3z"/>
						</g>
						<g id="Layer" style="opacity: .3">
							<g id="Layer">
								<g id="Layer">
									<path id="Layer" class="s1" d="m1835.4 3201.4c25.9-76.3 39.3-160.6 5.8-220.3 0.3-0.4 0.5-0.9 0.8-1.4l257-18.8c11.4 27.7 18.8 64.5 15.3 105.6-55.3 58.5-143.4 109.4-278.9 134.9z"/>
								</g>
							</g>
						</g>
						<g id="Layer">
							<path id="Layer" class="s1" d="m1757.1 3407.3c-7.8 0-15.2-3.6-20.2-9.9-6.7-8.5-7.5-19.9-2-29.1 36.3-61.7 149.9-271.2 88-378.4-5.6-9.7-2.2-22 7.4-27.6 9.7-5.6 22.1-2.3 27.7 7.4 62.9 109-15.9 287.8-69.5 386.1 144.3-50 242.1-122.4 283.8-210.6 40-84.6 16.2-156.6 8-176.6-4.3-10.4 0.6-22.2 11-26.5 10.3-4.2 22.2 0.7 26.4 11.1 12.6 30.7 37 112.5-8.8 209.3-50.8 107.3-166.6 189.3-344.2 243.6-2.5 0.8-5.1 1.2-7.6 1.2z"/>
						</g>
						<g id="Layer">
							<path id="Layer" class="s0" d="m3563.7 1801.9c0 0-26 562.7-704.8 983.3-578.2 358.2-1015.9 261.2-1015.9 261.2-123.3-110.2-211.2-253.4-254.4-411.5-10.2-37.1-17.8-75-22.9-113.4 0 0 41.3-103.2 159.5-240.7 46.5-54.2 105-113.7 177.5-174.3 113.3-94.8 261.1-192.3 451.5-276.8 10.8-4.8 21.5-9.4 32.2-13.9 45.4-19.3 89.9-36.1 133.3-50.7 636.1-214.8 1044 36.8 1044 36.8z"/>
						</g>
						<g id="Layer" style="opacity: .3">
							<g id="Layer">
								<g id="Layer">
									<path id="Layer" class="s1" d="m1731.3 2273.7c-122.9 141.1-165.6 247.7-165.6 247.7 16.4 124 59.5 241.9 125.6 346 41.8 65.9 92.7 126.2 151.7 179.1 0 0 437.7 96.9 1015.9-261.4 256.6-158.9 420-338.3 523.8-499.7-38.7 45.3-390.7-553.7-456.1-517.6-42.4 23.5 139.8 226.9 177.5 499.7 17.8 129-45.2 278.1-133 337.8-117.2 79.8-230.1 139.3-335.2 183.2-103 43.1-312 91.4-357.4 101.4-36.3 8-70.8 8.8-101.8 10.6-147.2 8.3-288.6-62.8-367.9-187-0.4-0.7-0.8-1.3-1.2-2.1-65.9-104-109.2-221.9-125.6-345.9 0 0 14.1-35.2 49.3-91.8z"/>
								</g>
							</g>
						</g>
						<g id="Layer">
							<path id="Layer" class="s2" d="m3258.9 2450c-79-279.4-216.1-539-402.4-761.7 439.7-51.4 707.2 113.6 707.2 113.6 0 0-14.5 314-304.8 648.1z"/>
						</g>
						<g id="Layer" style="opacity: .3">
							<g id="Layer">
								<g id="Layer">
									<path id="Layer" class="s1" d="m3258.9 2450c-79-279.4-216.1-539-402.4-761.7 8-1 16.1-1.9 24-2.6 149.7 146.8 255.8 259.5 341.6 418.2 35.5 65.6 128.4 69.5 168.2 6.5 74.9-118.5 125-232.5 151.7-320.3 14.3 7.3 21.7 11.9 21.7 11.9 0 0-14.5 313.9-304.8 648z"/>
								</g>
							</g>
						</g>
						<g id="Layer" style="opacity: .3">
							<g id="Layer">
								<g id="Layer">
									<path id="Layer" class="s0" d="m3258.9 2450c-1.3-4.7-2.7-9.3-4.1-14 115.1-153 175.1-296.4 206.3-400.8 29.3-98-25.2-201.9-122.7-233-101.5-32.5-249.7-63.3-435.4-56.3-15.1-19.5-30.6-38.7-46.5-57.7 439.7-51.3 707.2 113.7 707.2 113.7 0 0-14.5 314-304.8 648.1z"/>
								</g>
							</g>
						</g>
						<g id="Layer">
							<path id="Layer" fill-rule="evenodd" class="s1" d="m3258.9 2470.3q-2.2 0-4.4-0.5c-7.3-1.7-13.1-7.1-15.1-14.3-78.7-278.4-212.7-532.2-398.4-754.2-4.8-5.8-6-13.6-3.3-20.5 2.8-6.9 9.1-11.8 16.5-12.7 321.8-37.6 552.3 38.2 661.1 86.8 43.9 19.5 68.6 66.2 60 113.5-21.3 117.2-88.7 350.3-301.1 594.9-3.9 4.5-9.5 7-15.3 7zm-362.8-765.8c169 209.6 293.9 446 371.7 703.7 187.1-226.6 247.9-438.5 267.6-547.1 5.3-28.8-9.8-57.3-36.5-69.2-100.8-45-310.1-114.2-602.8-87.4z"/>
						</g>
						<g id="Layer">
							<path id="Layer" fill-rule="evenodd" class="s1" d="m1991.5 3078.7c-95 0-149.7-11.8-152.9-12.5-3.4-0.7-6.6-2.3-9.1-4.7-77.6-69.4-141.6-151.2-190.2-243.3-48.6-92-80.1-191-93.7-294.1-0.5-3.4 0-7 1.3-10.2 1.7-4.4 44.3-108.8 164.5-248.2 110.3-127.9 310-310.6 634.6-454.5 170.2-75.4 341.2-123.6 508.2-143.1 6.8-0.8 13.5 1.9 17.9 7.2 189.3 226.3 325.9 485.1 406.2 769 1.9 6.5 0.5 13.8-4.1 19-110.3 127-246.4 241-404.7 339.1-301.8 187-565.3 248.9-733.1 267.9-55.2 6.2-103.8 8.4-144.9 8.4zm-139.2-51c23.3 4.2 126.2 19.9 281.7 2.1 163.3-18.7 419.7-79.4 714.2-261.8 151.4-93.8 281.9-202.4 388.2-323-78.1-270.8-208.7-518.1-388.4-735.3-159.5 19.8-322.8 66.4-485.6 138.5-316.7 140.4-511.4 318-618.9 442.3-102.4 118.4-147.4 212.2-157 233.8 13.3 96.4 43.1 188.9 88.6 275 45.5 86.1 105.1 162.9 177.2 228.4z"/>
						</g>
						<g id="Layer">
							<path id="Layer" class="s1" d="m1718.7 3096.1c-37.7 0-74.3-15.4-101-43.5-92-97.2-155.6-217.7-184.1-348.6-10.8-50 6.6-101.8 45.5-135.1l73.4-62.8c8.5-7.3 21.3-6.3 28.6 2.2 7.3 8.5 6.3 21.3-2.2 28.5l-73.4 62.8c-27.6 23.7-40 60.4-32.3 95.9 26.9 123.5 87 237.4 173.9 329.2 25 26.4 62.3 36.9 97.3 27.4l93.3-25.2c10.8-2.9 21.9 3.5 24.8 14.3 3 10.8-3.4 21.9-14.2 24.8l-93.3 25.2c-12 3.3-24.2 4.9-36.3 4.9z"/>
						</g>
						<g id="Layer">
							<path id="Layer" class="s4" d="m446.3 3448.4c385.2-203.4 641.1-4.6 885.3-133.6 244.3-129 156.9-416.8 156.9-416.8 0 0-188.5-234.5-432.7-105.5-244.3 129-224.3 452.5-609.5 655.9z"/>
						</g>
						<g id="Layer">
							<path id="Layer" class="s5" d="m833.2 3242.4c224.3-118.5 391.3 31.5 533.5-43.6 142.2-75.1 73.3-276.9 73.3-276.9 0 0-127.8-170.7-270-95.6-142.2 75.1-112.5 297.6-336.8 416.1z"/>
						</g>
						<g id="Layer">
							<path id="Layer" class="s6" d="m1162.2 3065.9c0 0 168 13.5 229-18.7 61.1-32.3 31.5-118.9 31.5-118.9 0 0-54.9-73.3-115.9-41.1-61.1 32.3-144.6 178.7-144.6 178.7z"/>
						</g>
						<g id="Layer">
							<path id="Layer" fill-rule="evenodd" class="s1" d="m446.3 3468.7c-7.2 0-14.3-3.9-17.9-10.8-1.6-3-2.3-6.3-2.3-9.4 0-7.3 3.9-14.3 10.8-18 209.3-110.5 296.8-258.7 374.1-389.4 62.7-106.3 122-206.6 235.3-266.5 106.2-56 219.3-54.5 327.1 4.5 80.3 43.9 128.8 103.7 130.9 106.2 1.6 2 2.8 4.3 3.6 6.8 0.9 3.1 22.9 76.9 13.9 167.9-12.1 122.4-74.6 216.7-180.7 272.7-113.4 59.9-229.6 52.3-352.8 44.2-151.5-9.9-323.2-21.1-532.5 89.4-3 1.6-6.3 2.4-9.5 2.4zm758.7-694.8c-46.9 0-93.6 12.2-139.8 36.5-103.2 54.6-157 145.7-219.4 251.3-57.2 96.8-119.9 202.9-231.3 297.9 141.3-38.5 264.2-30.4 376.5-23.1 122.3 8 228 14.9 331.2-39.6 94.5-49.9 148-130.5 159.2-239.6 7.3-72.1-7.1-134-11.2-149.6-10.6-12.3-53.6-59.1-117.3-93.7-49.3-26.7-98.8-40.1-147.9-40.1z"/>
						</g>
						<g id="Layer">
							<path id="Layer" class="s2" d="m1784 2869.1c-117.6 62.1-282.6 30.2-282.6 30.2 0 0 0.2-0.6 0.7-1.6 7.6-16.8 73.1-156.5 183.5-214.9 106-56 231.6-24.3 254.1-17.9 2.3 0.6 3.5 1 3.5 1 0 0-42.3 141.6-159.2 203.2z"/>
						</g>
						<g id="Layer" style="opacity: .3">
							<g id="Layer">
								<g id="Layer">
									<path id="Layer" class="s0" d="m1501.4 2899.3c0 0 7 1.4 19.1 3 35-58.8 96.6-143.8 180.7-188.2 83.1-44 176.6-41.4 236.7-32.9 3.6-9.6 5.3-15.3 5.3-15.3 0 0-1.2-0.4-3.5-1-22.5-6.4-148.1-38.1-254.1 17.9-110.4 58.4-176 198.1-183.5 214.9-0.5 1-0.7 1.6-0.7 1.6z"/>
								</g>
							</g>
						</g>
						<g id="Layer" style="opacity: .3">
							<g id="Layer">
								<g id="Layer">
									<path id="Layer" class="s1" d="m1784 2869.1c-117.6 62.1-282.6 30.2-282.6 30.2 0 0 0.2-0.6 0.7-1.6l437.6-232.8c2.3 0.6 3.5 1 3.5 1 0 0-42.3 141.6-159.2 203.2z"/>
								</g>
							</g>
						</g>
						<g id="Layer">
							<path id="Layer" fill-rule="evenodd" class="s1" d="m1601 2927.9c-57.2 0-100-8-103.5-8.7-6-1.2-11.2-5-14-10.4-2.9-5.5-3.2-11.9-0.7-17.5 2.8-6.6 70.8-161.6 193.3-226.4 123-64.9 267.2-20.2 273.3-18.3 10.5 3.4 16.4 14.6 13.2 25.1-1.8 6.1-46.1 150.5-169.1 215.4-61.7 32.5-134.5 40.8-192.5 40.8zm-69.2-44.7c49.9 5.7 160 11.7 242.8-31.9 82.7-43.7 126-131.8 141.9-171.3-41.6-9-138.9-22.8-221.4 20.7-82.9 43.9-140 138.1-163.3 182.5zm-30.4 16.1z"/>
						</g>
						<g id="Layer" style="opacity: .3">
							<g id="Layer">
								<g id="Layer">
									<path id="Layer" class="s1" d="m2197.1 2542.8c-61.9-140.6 1.7-304.7 142.3-366.7 140.5-62 304.7 1.7 366.7 142.3 61.9 140.5-1.8 304.7-142.3 366.6-140.5 62-304.7-1.7-366.7-142.2z"/>
								</g>
							</g>
						</g>
						<g id="Layer">
							<path id="Layer" class="s2" d="m2197.1 2496.3c-61.9-140.6 1.7-304.7 142.3-366.7 140.5-62 304.7 1.7 366.7 142.2 61.9 140.6-1.8 304.7-142.3 366.7-140.5 62-304.7-1.7-366.7-142.2z"/>
						</g>
						<g id="Layer" style="opacity: .3">
							<g id="Layer">
								<g id="Layer">
									<path id="Layer" class="s1" d="m2197.1 2496.2c-61.9-140.5 1.7-304.7 142.3-366.6 44.2-19.5 90.7-26.5 135.7-22.7-20.2 3.9-40.2 10.1-59.9 18.7-140.5 62-204.2 226.2-142.2 366.7 42.5 96.4 133 156.6 231 164.9-124.5 24-253.5-40-306.9-161z"/>
								</g>
							</g>
						</g>
						<g id="Layer">
							<path id="Layer" fill-rule="evenodd" class="s1" d="m2452 2677.3c-112.7 0-220.4-65.3-268.8-174.9-31.6-71.7-33.4-151.4-5-224.4 28.3-73.1 83.4-130.7 155.1-162.3 71.6-31.6 151.3-33.4 224.4-5.1 73 28.4 130.6 83.4 162.2 155.1 65.3 148-2 321.5-150 386.7-38.3 16.9-78.4 24.9-117.9 24.9zm-0.5-556.3c-36 0-72 7.5-106 22.5-64.2 28.3-113.6 80-139 145.4-25.4 65.5-23.8 137 4.5 201.2 43.3 98.3 139.9 156.8 241 156.9 35.4 0 71.3-7.2 105.7-22.4 64.2-28.3 113.6-80 139-145.5 25.4-65.4 23.8-136.9-4.5-201.1-28.4-64.3-80-113.7-145.5-139.1-30.9-11.9-63.1-17.9-95.2-17.9z"/>
						</g>
						<g id="Layer">
							<path id="Layer" class="s7" d="m2269.9 2467.7c-45.3-102.8 1.3-222.8 104-268.1 102.7-45.3 222.8 1.3 268.1 104 45.3 102.8-1.3 222.8-104 268.1-102.8 45.3-222.8-1.3-268.1-104z"/>
						</g>
						<g id="Layer" style="opacity: .3">
							<g id="Layer">
								<g id="Layer">
									<path id="Layer" class="s0" d="m2259.8 2467.7c-45.3-102.8 1.2-222.7 104-268 22.2-9.9 45.3-15.4 68.3-16.9-2.1 0.8-4.2 1.7-6.3 2.6-102.8 45.3-149.4 165.3-104.1 268.1 35.5 80.5 116.9 126.5 199.8 120.8-101.3 40.8-217.3-6-261.7-106.6z"/>
								</g>
							</g>
						</g>
						<g id="Layer" style="opacity: .3">
							<g id="Layer">
								<g id="Layer">
									<path id="Layer" class="s1" d="m2460.2 2590.2c3.2-1.3 6.5-2.6 9.7-4 102.7-45.3 149.3-165.3 104-268-34.1-77.4-110.5-122.9-190-121.3 100.5-38.3 214.4 8.5 258.3 108 45.3 102.7-1.2 222.7-104 268-25.4 11.2-51.9 16.9-78 17.3z"/>
								</g>
							</g>
						</g>
						<g id="Layer">
							<path id="Layer" fill-rule="evenodd" class="s1" d="m2456 2604.3c-26.7 0-53.4-5-79.1-14.9-54.4-21.2-97.3-62.2-120.9-115.6-48.6-110.2 1.6-239.4 111.8-288.1 110.2-48.6 239.4 1.6 288 111.8 23.6 53.4 24.9 112.8 3.8 167.2-21.1 54.4-62.1 97.3-115.5 120.9-28.2 12.4-58.1 18.7-88.1 18.7zm-0.3-406.7c-25.4 0-51 5.1-75.7 15.9-94.9 41.9-138 153.1-96.2 248.1 20.3 45.9 57.3 81.3 104.1 99.4 46.8 18.2 98 17.1 143.9-3.2 46-20.3 81.3-57.3 99.5-104.1 18.2-46.8 17-98-3.2-143.9-31-70.3-100.1-112.2-172.4-112.2z"/>
						</g>
						<g id="Layer">
							<path id="Layer" class="s0" d="m2711.3 2171.9c-50.8 65.5-138.6 114.8-224.2 101.1-73.5-11.7-150-95.7-280.7-109.1-92.7-9.6-199 66.7-347.6-19.4-14.5-8.5-29.9-20.7-44.8-37.1-48.4-52.8-92.7-147.8-94.1-290.7-0.7-81.2 12.4-177.8 46.5-290.9 8.8-29.5 19.2-60.3 31.2-92.2 18.3-49 40.3-100.7 66.5-155.2l373.5-9.1-18.2 95.6-12.3 64.1-24.1 127-2.6 13.2-35.9 188.4-25.4 133.7c51.9-31.2 102.9-43.1 145.9-45.8 18.8-1.2 36.2-0.6 51.3 0.9h0.1c9.6 1 18.4 2.4 26.2 3.9 59.8 11.6 107.8 45.8 141.4 78.3 7.6 7.3 14.5 14.5 20.6 21.4 23.4 26.3 35.9 47.2 35.9 47.2 0 0 189.7-113 213.4 45.2 6.3 41.9-11 88.8-42.6 129.5z"/>
						</g>
						<g id="Layer">
							<path id="Layer" class="s1" d="m2516.3 2295.6c-10.9 0-21.7-0.9-32.4-2.6-33.8-5.4-65.7-23.1-102.6-43.6-48.9-27.2-104.3-57.9-177-65.4-27.4-2.8-58.2 3.1-90.7 9.3-70.7 13.5-158.6 30.4-264.9-31.3-57.6-33.3-125.6-121.7-144.1-269.6-21.3-170.9 27.5-386.2 141.2-622.8 4.9-10 17-14.3 27.1-9.4 10 4.8 14.3 16.9 9.4 27-110.3 229.5-157.9 437.1-137.5 600.2 16.6 133.2 75 211.1 124.2 239.6 93.3 54.1 166.3 40.1 237 26.5 35.5-6.8 69.1-13.2 102.5-9.8 80.9 8.3 142.8 42.7 192.5 70.3 33.5 18.7 62.5 34.8 89.3 39 60.3 9.7 130.4-16.7 183-68.7 43.7-43.3 66.9-96.6 60.6-138.9-4.7-31.5-16.5-51.3-36.1-60.6-44.1-20.9-121 14.4-147 29.8-9.6 5.7-22 2.6-27.7-7-0.7-1.2-70.1-115.3-184.3-137.4-41-8-122.7-13.6-209.3 38.5-9.5 5.7-22 2.6-27.7-6.9-5.8-9.6-2.7-22.1 6.9-27.8 98.2-59.1 191.1-52.7 237.8-43.6 105.5 20.5 175.1 104.4 200.6 140.3 34.1-17 111.6-49.2 168-22.5 32.3 15.2 52.1 45.9 58.8 91.2 8.4 55.7-18.6 120.6-72.1 173.7-53.5 52.9-120.9 82.5-185.5 82.5z"/>
						</g>
						<g id="Layer">
							<path id="Layer" class="s0" d="m1726.5 1869.9c0 0-65.8-69.7-6.7-142.7 0 0 286.4 58.8 498.5-8.2l23.9 125.4c0 0-237.3 69-515.7 25.5z"/>
						</g>
						<g id="Layer">
							<path id="Layer" fill-rule="evenodd" class="s1" d="m1918.4 1904.7c-60.6 0-126.5-4.1-195.1-14.8-4.4-0.7-8.5-2.9-11.6-6.1-26.9-28.6-63.2-100.8-7.6-169.3 4.8-5.9 12.4-8.6 19.8-7.1 2.8 0.6 283.8 56.9 488.3-7.7 5.5-1.8 11.5-1.1 16.5 1.9 5 3 8.4 7.9 9.5 13.6l23.9 125.5c2 10.2-4.2 20.3-14.2 23.2-7.5 2.1-143.2 40.8-329.5 40.8zm-181.4-53.7c224.9 33.6 422.8-7.1 481.8-21.4l-16.2-84.9c-187.8 51.2-417 15.2-474 4.8-29.1 45.5-3.1 86.9 8.4 101.5z"/>
						</g>
						<g id="Layer" style="opacity: .3">
							<g id="Layer">
								<g id="Layer">
									<path id="Layer" class="s1" d="m2235.7 1846.2q-2.2 0.6-5 1.3c1.9-0.5 3.6-0.9 5-1.3z"/>
								</g>
							</g>
						</g>
						<g id="Layer" style="opacity: .3">
							<g id="Layer">
								<g id="Layer">
									<path id="Layer" class="s1" d="m2711.3 2171.9q-2.1 2.7-4.3 5.4-1.7 2.1-3.6 4.3-2.7 3.1-5.5 6.2c-1.4 1.6-2.9 3.2-4.4 4.8q-7.8 8.2-16.4 15.9-2.2 2.1-4.6 4-2.6 2.3-5.3 4.5-5.7 4.6-11.5 8.9c-1.9 1.4-3.7 2.7-5.6 4-1.6 1.1-3.2 2.2-4.8 3.3q-2.3 1.6-4.7 3.1c-6.5 4.2-13.3 8.1-20.1 11.7-1.5 0.8-3 1.5-4.5 2.3-9.3 4.6-18.7 8.7-28.4 12.2q-2 0.7-4.1 1.4-11.3 3.8-22.9 6.4-1.8 0.4-3.6 0.7-3.9 0.9-7.8 1.5c-3.4 0.6-6.8 1.1-10.3 1.5-1.2 0.1-2.4 0.2-3.6 0.3-1.2 0.2-2.4 0.3-3.6 0.4q-1.2 0.1-2.4 0.2-2.4 0.2-4.9 0.2c-12.4 0.6-24.8-0.1-37.3-2.1-73.5-11.7-150-95.7-280.7-109.1-92.7-9.6-199 66.7-347.6-19.4-14.5-8.5-29.9-20.7-44.8-37.1-48.4-52.8-92.7-147.8-94.1-290.7l291.9 49.1c0 0-163.2 24.6-153 113.9 4.4 38.1 31.8 71.6 72.3 94.5 54.3 30.7 132.2 42.3 209.9 20.4 135.7-38.3 208.8 3.3 286.6 74.4 58.5 53.4 193.3 82.1 283.7 2.9z"/>
								</g>
							</g>
						</g>
						<g id="Layer">
							<path id="Layer" class="s0" d="m2242.2 1844.4c0 0-33.7 9.9-90.5 19.7-94.1 16.3-251.7 32.9-425.3 5.8 0 0-65.7-69.7-6.6-142.7 0 0 186.3 38.3 369.7 17.9 44-4.9 87.8-13.1 128.8-26.1z"/>
						</g>
						<g id="Layer" style="opacity: .3">
							<g id="Layer">
								<g id="Layer">
									<path id="Layer" class="s1" d="m2242.2 1844.4q0 0-3.8 1.1c-0.7 0.2-1.5 0.4-2.3 0.6-0.2 0.1-0.2 0.1-0.4 0.1-1.4 0.4-3.1 0.8-5 1.3q-2.5 0.7-5.6 1.4-0.8 0.2-1.7 0.4c-7 1.7-15.8 3.8-26.3 6-2.3 0.5-4.8 1-7.3 1.6q-8.9 1.8-19.1 3.8c-2.8 0.5-5.7 1-8.6 1.6q-5.1 0.9-10.4 1.8c-94.1 16.3-251.7 32.9-425.3 5.8 0 0-53.9-57.1-20.2-122.1q0.3 2.5 0.7 4.8c6 35.9 36 63 72.2 67.3 99 11.7 191.3 10 267.7 3.3 38-3.3 60.4-44.3 42.7-78.1 44-4.9 87.8-13.1 128.8-26.1l14.2 74.8z"/>
								</g>
							</g>
						</g>
						<g id="Layer">
							<path id="Layer" fill-rule="evenodd" class="s1" d="m1918.4 1904.7c-60.6 0-126.5-4.1-195.1-14.8-4.4-0.7-8.5-2.9-11.6-6.1-26.9-28.6-63.2-100.8-7.6-169.3 4.8-5.9 12.4-8.6 19.8-7.1 2.8 0.6 283.8 56.9 488.3-7.7 5.5-1.8 11.5-1.1 16.5 1.9 5 3 8.4 7.9 9.5 13.6l23.9 125.5c2 10.2-4.2 20.3-14.2 23.2-7.5 2.1-143.2 40.8-329.5 40.8zm-181.4-53.7c224.9 33.6 422.8-7.1 481.8-21.4l-16.2-84.9c-187.8 51.2-417 15.2-474 4.8-29.1 45.5-3.1 86.9 8.4 101.5z"/>
						</g>
						<g id="Layer">
							<path id="Layer" class="s0" d="m2103.2 1318.8l367.5 389.9c0 0 71.2-52.5 130.4-45.4 54.1 6.4 80.3 18.4 99.6 43.2 20.1 25.7 33.1 140.8-13.3 172.2-40.7 27.6-88.7-2.5-88.7-2.5 0 0-102.1 67-184.5 61.2-39.3-2.8-335.6-229.5-335.6-229.5z"/>
						</g>
						<g id="Layer" style="opacity: .3">
							<g id="Layer">
								<g id="Layer">
									<path id="Layer" class="s1" d="m2718.5 1805.1c-2.1 30.9-11.1 60.1-31.1 73.7-40.7 27.5-88.7-2.5-88.7-2.5 0 0-102.1 66.9-184.5 61.1-39.3-2.8-335.6-229.4-335.6-229.4l0.5-8.2c180.8 30.9 314.1 181.7 348.6 184.1 59.5 4.2 129.3-29.5 163.4-48.6 12.3-6.9 27-8.3 40.3-3.8 17.7 6.1 44.9 10.4 69.5-6.2 7.2-4.9 13-11.8 17.6-20.2z"/>
								</g>
							</g>
						</g>
						<g id="Layer">
							<path id="Layer" class="s1" d="m2116.8 1306l367.4 390-24.5-2.2c5.6-4.1 10.5-7.3 16-10.6q7.9-5 16.1-9.4c11-6 22.3-11.5 34.2-16.1 11.9-4.6 24.2-8.5 37.2-11 13-2.4 27-3.3 40.9-1.8 12.2 1.4 24.5 3.3 36.9 6.2 12.5 3 25.2 7 37.7 13.3 6.2 3.2 12.2 7.1 17.8 11.5 5.7 4.5 10.7 9.5 15.3 14.8l3.3 4c1.2 1.6 2.8 3.8 3.8 5.5 2.2 3.7 3.8 7.1 5.2 10.4 2.7 6.7 4.7 13 6.3 19.4 6.2 25.4 8.2 50.4 6.7 76.1-1 12.9-2.8 25.8-6.7 38.9-1.9 6.5-4.3 13.1-7.6 19.6-3.3 6.4-7.3 12.9-12.7 18.7-5.2 5.8-12.2 11.2-18.5 14.6-6.6 3.6-13.7 6.7-21 8.4-14.7 3.7-29.6 3.2-43.3 0.4-6.9-1.3-13.5-3.3-20-5.8-1.5-0.6-3.2-1.2-4.7-1.9l-2.4-1.1h-0.2q-0.3-0.1-0.6-0.1-0.1 0-0.3 0.1h-0.1q-0.1 0-0.1 0.1h-0.1l-0.5 0.3-7.9 4.6q-8 4.6-16.1 8.8c-10.9 5.7-21.9 11-33.2 15.9-11.2 4.9-22.7 9.4-34.4 13.4-11.7 4.1-23.9 7.3-36.2 10.1-12.4 2.4-25 4.6-38.2 5l-4.8 0.2-5-0.1c-3.4-0.1-6.4-0.1-10.2-0.3-2.7-0.4-5.7-1-8.1-1.7l-5.5-2c-2-0.6-3.4-1.3-4.9-2.1l-4.7-2.1c-11.6-5.7-21.9-12-32.3-18.3-20.6-12.7-40.4-25.9-60-39.3-39.1-27.1-77.8-54.4-116.4-81.8-19.2-13.8-37.9-28.3-56.2-43.3-18.1-15.4-35.7-31.3-51.2-50h-0.1c-3.3-4.1-2.8-10.1 1.3-13.4 2.9-2.5 6.8-2.8 10.1-1.3 43.7 20.2 81.3 48.6 119.4 76.3 37.5 28.5 75.4 56.4 114.1 82.8 19.4 13.2 38.8 26.2 58.4 38.3 9.8 6 19.8 11.9 29.3 16.6l3.4 1.6c1.1 0.5 2.4 1.1 3.2 1.3l2.8 1.1c0.4 0 0.4 0 0.6 0.2 2.1 0.1 5 0.1 7.5 0.2l3.8 0.1 4-0.2c10.5-0.2 21.2-2.2 31.9-4.2 10.7-2.5 21.5-5.3 32.1-9 10.6-3.5 21.1-7.6 31.5-12.2 10.4-4.5 20.6-9.5 30.7-14.8q7.6-3.9 15-8.1l7.3-4.3 1.4-0.8q0.9-0.5 1.8-1 1.9-0.9 4-1.6c2.6-1 5.4-1.7 8.2-2 5.7-0.7 11.6-0.2 17 1.6 1.3 0.5 2.8 1.1 3.8 1.5l1.7 0.8c1.2 0.5 2.3 0.9 3.5 1.4 4.6 1.7 9.3 3.1 14 4.1 9.4 1.9 18.6 2 26.9-0.1 8.1-2.1 16.3-6.5 20.9-11.9 5.3-5.7 9.5-14.3 12.2-23.9 2.9-9.5 4.5-20.1 5.2-30.8 1.3-21.4-0.4-43.9-5.5-64.4-1.3-5.1-2.9-10-4.6-14.2-0.9-2.2-1.9-4.1-2.7-5.5-0.5-0.8-0.7-1-1.2-1.8l-2.3-2.8c-6.3-7.4-13.5-13-22-17.4-17.3-8.9-39.5-13-61.9-15.7-9.6-0.9-19.4-0.4-29.6 1.4-10.1 2.1-20.4 5.2-30.5 9.1-10.2 4-20.2 8.8-29.9 14.1-4.9 2.6-9.7 5.5-14.4 8.4-4.7 2.8-9.6 6.1-13.6 8.9l-0.2 0.2c-7.6 5.5-18.1 4.3-24.3-2.4l-367.5-389.9c-7.1-7.5-6.7-19.3 0.8-26.3 7.4-7.1 19.2-6.7 26.3 0.7z"/>
						</g>
						<g id="Layer">
							<path id="Layer" class="s0" d="m2205.2 1801.5c0 0 128.4-121.6 165.8-198.6"/>
						</g>
						<g id="Layer">
							<path id="Layer" class="s1" d="m2205.2 1816.7c-4.1 0-8.1-1.6-11.1-4.8-5.7-6.1-5.5-15.7 0.6-21.4 1.3-1.2 126.9-120.7 162.6-194.2 3.7-7.5 12.8-10.7 20.3-7 7.6 3.6 10.7 12.7 7 20.3-38.1 78.5-163.7 197.9-169 202.9-2.9 2.8-6.7 4.2-10.4 4.2z"/>
						</g>
						<g id="Layer">
							<path id="Layer" class="s0" d="m2526.9 1007.7c-5.5 1.6-11.3-1.5-12.9-7l-85.2-286.8c-1.6-5.5 1.5-11.3 7-12.9 57.7-17.2 118.4 15.7 135.5 73.4l29 97.8c17.2 57.7-15.7 118.3-73.4 135.5z"/>
						</g>
						<g id="Layer">
							<path id="Layer" fill-rule="evenodd" class="s1" d="m2523.9 1011.7c-2.3 0-4.5-0.5-6.6-1.7-3.3-1.7-5.7-4.7-6.8-8.3l-85.2-286.8c-1-3.6-0.6-7.4 1.1-10.6 1.8-3.3 4.8-5.7 8.4-6.8 28.8-8.6 59.2-5.4 85.7 8.9 26.4 14.4 45.7 38.1 54.3 67l29 97.8c8.6 28.8 5.4 59.2-8.9 85.7-14.3 26.4-38.1 45.7-66.9 54.3q-2 0.5-4.1 0.5zm-56.9-311.6c-10.1 0-20.2 1.4-30.2 4.4-1.7 0.5-3.1 1.6-4 3.2-0.8 1.6-1 3.4-0.5 5.2l85.2 286.7c0.5 1.8 1.7 3.2 3.2 4 1.6 0.9 3.5 1.1 5.2 0.6 55.7-16.6 87.5-75.3 71-131l-29.1-97.8c-8-26.9-26-49.2-50.8-62.6-15.6-8.4-32.7-12.7-50-12.7z"/>
						</g>
						<g id="Layer" style="opacity: .3">
							<g id="Layer">
								<g id="Layer">
									<path id="Layer" class="s1" d="m2586.7 826.3l13.7 45.9c17.1 57.7-15.8 118.3-73.5 135.5-5.5 1.6-11.3-1.5-12.9-7l-22.7-76.3c2.6 3.1 6.8 4.4 10.8 3.3l6.8-2.1c45.6-13.5 75.7-54.3 77.8-99.3z"/>
								</g>
							</g>
						</g>
						<g id="Layer">
							<path id="Layer" fill-rule="evenodd" class="s1" d="m2523.9 1023.3c-4.2 0-8.3-1-12.1-3.1-6-3.3-10.4-8.7-12.4-15.2l-85.2-286.8c-1.9-6.5-1.2-13.4 2.1-19.5 3.2-6 8.6-10.3 15.2-12.3 31.8-9.4 65.3-5.9 94.5 9.9 29.1 15.8 50.4 42 59.8 73.8l29.1 97.8c9.4 31.8 5.9 65.3-9.9 94.5-15.8 29.1-42 50.4-73.8 59.8-2.4 0.7-4.8 1.1-7.3 1.1zm-79.1-309l82.4 277.3c46.7-16.5 72.8-67.1 58.6-115.1l-29.1-97.8c-7.1-24-23.2-43.8-45.2-55.7-20.6-11.2-44.1-14.2-66.7-8.7z"/>
						</g>
						<g id="Layer">
							<path id="Layer" class="s0" d="m1489.2 982.2c5.5-1.6 11.3 1.5 12.9 7l85.2 286.8c1.7 5.5-1.5 11.3-7 12.9-57.7 17.1-118.3-15.7-135.5-73.4l-29-97.8c-17.1-57.7 15.7-118.4 73.4-135.5z"/>
						</g>
						<g id="Layer">
							<path id="Layer" fill-rule="evenodd" class="s1" d="m1549.3 1297.1c-48.5 0-93.4-31.7-107.9-80.6l-29.1-97.8c-17.7-59.5 16.4-122.3 75.9-140 7.4-2.2 15.2 2.1 17.4 9.5l85.2 286.7c2.2 7.5-2 15.3-9.4 17.5-10.7 3.1-21.5 4.7-32.1 4.7zm-59.1-311.4c-55.6 16.5-87.5 75.3-70.9 130.9l29 97.8c16.6 55.7 75.3 87.5 131 71 3.6-1.1 5.6-4.8 4.5-8.4l-85.2-286.8c-0.5-1.7-1.6-3.1-3.2-4-1.6-0.8-3.4-1-5.2-0.5z"/>
						</g>
						<g id="Layer" style="opacity: .3">
							<g id="Layer">
								<g id="Layer">
									<path id="Layer" class="s1" d="m1563.7 1196.4l23.6 79.6c1.7 5.5-1.5 11.3-7 12.9-30.3 9-61.4 4.2-86.6-10.7-22.8-13.5-40.7-35.3-48.8-62.7l-12.3-41.2c27.1 31.3 71.1 45.6 113.4 33.1l10.5-3.1c3.8-1.2 6.4-4.3 7.2-7.9z"/>
								</g>
							</g>
						</g>
						<g id="Layer">
							<path id="Layer" fill-rule="evenodd" class="s1" d="m1549.1 1308.7c-20.4 0-40.5-5.1-59-15.1-29.1-15.8-50.4-42-59.8-73.8l-29.1-97.8c-19.5-65.6 18.1-134.9 83.7-154.4 13.5-4 27.8 3.8 31.8 17.3l85.2 286.8c4 13.5-3.7 27.7-17.3 31.8-11.6 3.4-23.6 5.2-35.5 5.2zm-60.1-310.5c-46.8 16.5-72.9 67.1-58.7 115.2l29.1 97.8c14.3 48 63.8 76.1 112 64.4zm4.5-1.5q0 0 0 0 0 0 0 0z"/>
						</g>
						<g id="Layer">
							<path id="Layer" class="s0" d="m2505.9 884.8c60.8 274.9-112.7 547-387.6 607.9-274.9 60.8-547.1-112.7-607.9-387.6-60.9-274.9 112.7-547.1 387.6-607.9 274.9-60.9 547 112.7 607.9 387.6z"/>
						</g>
						<g id="Layer">
							<path id="Layer" fill-rule="evenodd" class="s1" d="m2007.1 1508.5c-96.7 0-191.5-27.4-275-80.6-115.6-73.8-195.7-188.1-225.3-322-29.6-133.9-5.3-271.4 68.4-387 73.7-115.7 188.1-195.7 322-225.3 276.4-61.2 551.1 113.9 612.2 390.4 61.2 276.4-113.9 551.1-390.3 612.2-37.3 8.3-74.8 12.3-112 12.3zm1.1-1019.8c-36.1 0-72.8 3.9-109.4 12-132.1 29.2-244.8 108.1-317.5 222.1-72.7 114-96.6 249.5-67.4 381.5 29.2 132 108.1 244.7 222.1 317.4 114 72.7 249.5 96.7 381.5 67.4 272.5-60.3 445.1-331 384.8-603.6-52.2-235.8-262-396.8-494.1-396.8z"/>
						</g>
						<g id="Layer" style="opacity: .3">
							<g id="Layer">
								<g id="Layer">
									<path id="Layer" class="s1" d="m2485.9 816.9c8.1 21.8 14.8 44.5 20 67.9 60.8 274.9-112.7 547-387.6 607.9-274.9 60.8-547.1-112.7-608-387.6-1.7-7.9-3.3-15.9-4.6-23.7 87.2 234.8 336.4 375.4 587.9 319.7 267-59.1 438.3-317.5 392.3-584.2z"/>
								</g>
							</g>
						</g>
						<g id="Layer">
							<path id="Layer" fill-rule="evenodd" class="s1" d="m2007.1 1520.1c-98.9 0-195.8-28.1-281.2-82.5-118.3-75.4-200.1-192.3-230.4-329.2-30.3-137-5.4-277.5 70-395.7 75.3-118.3 192.3-200.1 329.2-230.4 282.6-62.5 563.4 116.6 626 399.2 62.6 282.6-116.5 563.5-399.1 626-38.1 8.4-76.4 12.6-114.5 12.6zm1.1-1019.9c-35.3 0-71.1 3.8-106.9 11.8-129 28.5-239.2 105.6-310.2 217-71.1 111.4-94.5 243.8-65.9 372.8 28.5 129 105.6 239.2 217 310.2 111.4 71 243.8 94.4 372.8 65.9 266.3-59 435-323.6 376.1-589.9-51-230.4-256.1-387.8-482.9-387.8z"/>
						</g>
						<g id="Layer">
							<path id="Layer" class="s1" d="m2507.1 897.9c23.1 97.1 12.9 194.7-23.3 282-27.1 65.5-170 202.7-374.6 253.2-189.8 46.8-386.8-13.5-440.5-59.8-71.6-61.8-124.5-144.5-147.5-241.5-60.9-256.9 134.5-415.7 406.8-480.3 272.2-64.6 518.2-10.5 579.1 246.4z"/>
						</g>
						<g id="Layer" style="opacity: .5">
							<g id="Layer">
								<g id="Layer">
									<path id="Layer" class="s0" d="m2273.4 904.5c2.6 49.8 34 88.5 70.1 86.6 36-1.9 63.1-43.8 60.4-93.6-2.7-49.8-34.1-88.5-70.1-86.6-36.1 1.9-63.1 43.9-60.4 93.6z"/>
								</g>
							</g>
						</g>
						<g id="Layer" style="opacity: .5">
							<g id="Layer">
								<g id="Layer">
									<path id="Layer" class="s0" d="m2266.6 1090.4c-2 22.8 12.3 42.6 31.8 44.2 19.6 1.7 37-15.4 39-38.2 1.9-22.8-12.4-42.6-31.9-44.3-19.6-1.6-37 15.5-38.9 38.3z"/>
								</g>
							</g>
						</g>
						<g id="Layer" style="opacity: .3">
							<g id="Layer">
								<g id="Layer">
									<path id="Layer" class="s8" d="m2354.4 681c73.9 43.2 128.2 113.7 152.7 216.9 23 97.1 12.9 194.7-23.3 282-27.1 65.5-170 202.7-374.6 253.2-72.3 17.9-145.6 20.1-211.7 13.6 250.3-67.5 424.1-235.6 457.7-316.8 46-110.8 58.8-234.7 29.6-357.9-7.8-32.9-18-63.2-30.4-91z"/>
								</g>
							</g>
						</g>
						<g id="Layer">
							<path id="Layer" class="s1" d="m1506.4 916.5c-2 0-4-0.4-5.9-1.4-5.9-3.2-8.3-10.2-5.7-16.2 56.7-148.3 208-261.5 415.2-310.7 206-48.9 391.6-18 509.3 84.7 4.4 3.7 6 10.1 3.3 15.4-3.1 6.3-10.7 8.8-17 5.7l-1.4-0.7-1.3-1.1c-111.4-97.4-289-126.4-487-79.4-199.2 47.3-344.1 155-397.6 295.5l-0.7 1.5c-2.3 4.3-6.7 6.7-11.2 6.7z"/>
						</g>
						<g id="Layer" style="opacity: .5">
							<g id="Layer">
								<g id="Layer">
									<path id="Layer" class="s0" d="m1668.2 1258.3c0 0-139.7-234.5-27.1-367.9 112.6-133.4 309.2-179.6 307.6-165.9 0 0-205 104.3-249.3 296.4-34.2 148.2-31.2 237.4-31.2 237.4z"/>
								</g>
							</g>
						</g>
						<g id="Layer" style="opacity: .3">
							<g id="Layer">
								<g id="Layer">
									<path id="Layer" class="s1" d="m2323.7 1477.6c-13.6 10.7-27.7 20.7-42.4 30.1-30.5 19.3-63.4 35.6-98.3 48.3-0.8 0.3-1.5 0.5-2.3 0.8-20.2 7.2-41 13.2-62.4 18-10.6 2.3-21.1 4.3-31.6 5.9-99.2 15.6-197 1.2-283.6-36.9-12.5-5.5-24.7-11.5-36.7-18-45.3-24.4-86.8-55.5-122.9-92.4q7.8-0.9 15.9-0.9l138.2 1.1c18.3-49 40.3-100.7 66.5-155.2l373.5-9.1-18.2 95.6z"/>
								</g>
							</g>
						</g>
						<g id="Layer">
							<path id="Layer" class="s0" d="m1858.8 2144.5c148.6 86.1 254.9 9.8 347.6 19.4 130.7 13.4 207.2 97.4 280.7 109.1 138.8 22.2 283.2-121.2 266.8-230.6-23.7-158.2-213.4-45.2-213.4-45.2 0 0-73-122.7-197.8-146.9-47.9-9.3-134.4-12.6-223.6 41"/>
						</g>
						<g id="Layer">
							<path id="Layer" class="s0" d="m1858.8 2144.5c148.6 86.1 254.9 9.8 347.6 19.4 130.7 13.4 207.2 97.4 280.7 109.1 138.8 22.2 283.2-121.2 266.8-230.6-23.7-158.2-213.4-45.2-213.4-45.2 0 0-73-122.7-197.8-146.9-47.9-9.3-134.4-12.6-223.6 41"/>
						</g>
						<g id="Layer" style="opacity: .3">
							<g id="Layer">
								<g id="Layer">
									<path id="Layer" class="s1" d="m2711.3 2171.9q-2.1 2.7-4.3 5.4-1.7 2.1-3.6 4.3-2.7 3.1-5.5 6.2c-1.4 1.6-2.9 3.2-4.4 4.8q-7.8 8.2-16.4 15.9-2.2 2.1-4.6 4-2.6 2.3-5.3 4.5-5.7 4.6-11.5 8.9c-1.9 1.4-3.7 2.7-5.6 4-1.6 1.1-3.2 2.2-4.8 3.3q-2.3 1.6-4.7 3.1c-6.5 4.2-13.3 8.1-20.1 11.7-1.5 0.8-3 1.5-4.5 2.3-9.3 4.6-18.7 8.7-28.4 12.2q-2 0.7-4.1 1.4-11.3 3.8-22.9 6.4-1.8 0.4-3.6 0.7-3.9 0.9-7.8 1.5c-3.4 0.6-6.8 1.1-10.3 1.5-1.2 0.1-2.4 0.2-3.6 0.3-1.2 0.2-2.4 0.3-3.6 0.4q-1.2 0.1-2.4 0.2-2.4 0.2-4.9 0.2c-12.4 0.6-24.8-0.1-37.3-2.1-73.5-11.7-150-95.7-280.7-109.1-92.7-9.6-199 66.7-347.6-19.4l72.3-70.3c54.3 30.7 132.2 42.3 209.9 20.4 135.7-38.3 208.8 3.3 286.6 74.4 58.5 53.4 193.3 82.1 283.7 2.9z"/>
								</g>
							</g>
						</g>
						<g id="Layer">
							<path id="Layer" class="s1" d="m2287.8 2202.6c-10.9 0-19.9-8.7-20.3-19.6-0.3-10-6.1-245.5 151.8-317.1 10.1-4.6 22.1-0.1 26.8 10.1 4.6 10.1 0.1 22.2-10.1 26.8-133.2 60.4-128 276.7-128 278.9 0.4 11.1-8.4 20.5-19.6 20.8q-0.3 0.1-0.6 0.1z"/>
						</g>
						<g id="Layer">
							<path id="Layer" class="s1" d="m1868.2 2128.4l17.3 9.1 8.7 4.5 9 3.7c6 2.3 11.9 5.2 18.1 7.2l18.5 5.6c24.9 6.5 50.6 9.3 76.7 8.6 26-0.7 52.3-4.9 79.2-9.9 26.9-5 54.6-11.1 84.6-12.4 3.7-0.1 7.4-0.6 11.2-0.3l11.5 0.6c1.9 0.1 3.9 0.1 5.7 0.3l5.4 0.8 10.9 1.4c7.2 0.9 14.3 2.4 21.4 3.9l10.7 2.3 10.5 2.9c28 7.6 54.9 18.5 80.4 31 25.5 12.5 49.8 26.6 73.6 39.5 6 3.2 11.9 6.2 17.8 9.3l8.9 4.2 4.4 2.1 4.5 1.8c11.8 5.3 23.3 8.3 35.1 10.3 12.3 2 24.8 2.1 37.2 1.2 12.5-0.8 25-3.1 37.2-6.6 24.4-6.7 47.8-18.1 69.2-32.4 10.7-7.3 20.8-15.3 30.4-23.9 9.5-8.8 18.4-18.2 26.6-28.1 16.2-19.9 29.3-42.3 37-65.8 3.9-11.7 6.2-23.7 6.6-35.5 0.1-3-0.1-5.9-0.1-8.8-0.1-3-0.5-5.8-0.8-8.7-0.3-2.9-1.1-6-1.6-9l-0.9-4.5-1.2-4.3c-3.1-11.6-7.8-22.2-14.4-30.3-6.7-8.1-15.2-13.8-25.3-17.3-10.1-3.5-21.7-4.6-33.8-4-12 0.7-24.5 3-36.8 6.4-12.4 3.3-24.7 7.7-36.7 12.8-6.1 2.6-12 5.2-17.9 8.1-5.8 2.9-11.9 6.1-17 9-8.8 5.1-20 2.3-25.4-6.3l-0.1-0.2c-2.4-3.8-5.5-8.5-8.6-12.7-3-4.4-6.3-8.6-9.5-12.9-3.3-4.2-6.8-8.3-10.2-12.4-3.6-4-7.1-8.1-10.7-12-14.6-15.8-30.5-30.3-47.6-42.8-4.1-3.3-8.6-6.1-13-9-4.4-2.9-8.8-6-13.4-8.4-4.6-2.5-9.2-5.2-13.8-7.6l-14.3-6.5-3.5-1.7-3.7-1.2-7.4-2.6-7.3-2.7c-2.5-0.9-5-1.3-7.5-1.9l-15.1-3.8c-5.2-0.9-10.3-1.8-15.6-2.5-41.8-5.4-85.3-2.2-125.4 11.2-20 6.7-39.7 14.7-58.9 23.5l-7.1 3.3-3.6 1.6-3.7 2c-4.9 2.7-10 5.2-15 7.7-10.1 5-20.3 9.8-31.1 13.9-4.9 1.8-10.4-0.6-12.3-5.5-1.3-3.6-0.4-7.5 2.1-10.1 8.1-8.3 16.6-15.8 25.3-23.2 8.8-7.4 17.3-14.6 27.9-21 20.2-12.9 42.1-22.7 65.2-29.1 22.9-6.4 46.5-10.7 70.2-12.8 23.7-2 47.6-1.4 71.3 1.6 6 0.8 11.9 1.8 17.8 2.9l17.7 4.3c2.9 0.8 5.9 1.4 8.8 2.4l8.5 3 8.6 3 4.3 1.6 4.1 1.8 16.4 7.6c5.4 2.7 10.5 5.8 15.8 8.6 5.3 2.8 10.2 6.2 15.2 9.5 5 3.3 10 6.5 14.6 10.2 19.2 14.1 36.8 30.1 52.8 47.3 4 4.4 7.8 8.8 11.7 13.2 3.8 4.6 7.5 9.1 11.2 13.7 3.6 4.7 7.2 9.4 10.6 14.2 3.5 4.9 6.6 9.6 10.2 15.3l-25.5-6.5c6.8-4 13-7.1 19.6-10.4 6.5-3.2 13.1-6.1 19.8-9 13.4-5.6 27.1-10.6 41.4-14.5 14.3-3.8 29.1-6.7 44.6-7.6 15.5-0.8 31.9 0.5 47.9 6 16.1 5.4 31.3 15.7 42.1 29.1 10.8 13.4 17.3 28.7 21.4 43.7l1.6 5.7 1.1 5.6c0.6 3.8 1.5 7.5 2 11.4 0.4 4 1 8 1.1 12 0 4 0.2 7.9 0.1 11.9-0.6 15.8-3.6 31.2-8.4 45.6-9.5 29-24.9 55.1-43.6 77.9-9.3 11.4-19.5 22.1-30.3 32.1-10.9 9.8-22.5 18.9-34.7 27.2-24.4 16.4-51.2 29.6-80.1 37.5-14.3 4-29.2 6.8-44.3 7.8-15 1-30.3 0.9-45.3-1.4-15.4-2.6-30.8-6.9-44.1-12.9l-5.2-2.1-4.9-2.3-9.9-4.7c-6.3-3.2-12.8-6.5-18.9-9.8-24.7-13.4-48.3-27.1-72.4-38.8-24-11.8-48.6-21.8-73.8-28.6l-9.5-2.7-9.6-2c-6.4-1.3-12.8-2.7-19.3-3.5l-9.7-1.3-4.8-0.7c-1.6-0.1-3.1-0.1-4.6-0.2-6.2-0.3-12.2-0.8-18.6-0.2-25.3 1-51.8 6.6-79.2 11.7-27.3 5.2-55.8 9.8-85 10.6-29.1 0.8-58.8-2.4-87.3-9.8l-21.1-6.5c-7-2.3-13.6-5.4-20.4-8l-10.2-4.2-9.7-5.1-19.3-10.1c-9.1-4.7-12.6-16-7.9-25.1 4.8-9.1 16-12.6 25.1-7.8z"/>
						</g>
					</g>
				</g>
			</g>
		</g>
	</g>
</svg>